# xmcd CD database file
#
# Track frame offsets:
#	150
#	14300
#	29822
#	41850
#	50525
#	70700
#	82550
#	95275
#	112925
#	125500
#	139850
#	150122
#
# Disc length: 2288 seconds
#
# Revision: 0
# Processed by: cddbd v1.5.1PL0 Copyright (c) Steve Scherf et al.
# Submitted via: CDex 1.51
#
DISCID=8e08ee0c
DTITLE=Various Artist - Soul Christmas
DYEAR=2003
DGENRE=
TTITLE0=The Christmas Song - Stevie Wonder
TTITLE1=I Want To Come Home For Christmas - Marvin Gaye
TTITLE2=Santa Clause Is Coming To Town - Diana Ross and The Supremes
TTITLE3=Rudolph The Red Nosed Reindeer - The Platters
TTITLE4=Have Yourself A Merry Little Christmas - Vanessa Williams
TTITLE5=Frosty The Snowman - Jackson 5
TTITLE6=My Favorite Things - Diana Ross
TTITLE7=Merry Christmas Baby - James Brown
TTITLE8=Jingle Bells - Smokey Robinson and The Miracles
TTITLE9=Little Drummer Boy - Jackson 5
TTITLE10=Winter Wonderland - The Platters
TTITLE11=White Christmas - Aaron Neville
EXTD=YEAR: 2003
EXTT0=
EXTT1=
EXTT2=
EXTT3=
EXTT4=
EXTT5=
EXTT6=
EXTT7=
EXTT8=
EXTT9=
EXTT10=
EXTT11=
PLAYORDER=
